<?xml version="1.0" encoding="UTF-8" standalone="no"?>
<!DOCTYPE svg PUBLIC "-//W3C//DTD SVG 1.1//EN" "http://www.w3.org/Graphics/SVG/1.1/DTD/svg11.dtd">
<svg width="100%" height="100%" viewBox="0 0 1700 1270" version="1.1" xmlns="http://www.w3.org/2000/svg" xmlns:xlink="http://www.w3.org/1999/xlink" xml:space="preserve" xmlns:serif="http://www.serif.com/" style="fill-rule:evenodd;clip-rule:evenodd;stroke-linejoin:round;stroke-miterlimit:2;">
    <g>
        <rect x="0" y="0" width="1700" height="1270" style="fill:#f9fafb;fill-rule:nonzero;"/>
        <path d="M616.783,1179.85C551.417,1179.85 486.001,1178.59 421.43,1172.54C309.779,1162.07 235.523,1089.27 204.678,1052.46C207.993,1053.66 211.569,1054.31 215.297,1054.31L299.693,1054.31L299.693,1030.64L299.829,1030.64L299.829,1054.81L1446.23,1054.81C1460.77,1054.81 1472.56,1043.03 1472.56,1028.49L1472.56,1024.21C1473.27,1024.21 1473.98,1024.2 1474.68,1024.2C1480.01,1024.17 1486.91,1023.16 1493.18,1023.16C1496.14,1023.16 1498.97,1023.39 1501.42,1024.05C1503.38,1024.59 1505.24,1025.29 1507.02,1026.14C1542.77,1043.32 1541.16,1122.67 1531.61,1153.55C1529.78,1159.48 1527.44,1165.48 1523.06,1169.88C1515.45,1177.52 1497.3,1179.62 1477.46,1179.62C1465.33,1179.62 1452.56,1178.83 1441.17,1178.05C1429.78,1177.26 1419.77,1176.48 1413.16,1176.48L1412.48,1176.48C1369.85,1176.85 1327.22,1177.2 1284.58,1177.51C1143.22,1178.55 1001.87,1179.35 860.497,1179.35C829.735,1179.35 798.946,1179.31 768.184,1179.23C764.124,1179.22 760.065,1179.21 756,1179.21C732.923,1179.21 709.756,1179.37 686.546,1179.53C663.324,1179.69 640.057,1179.85 616.783,1179.85Z" style="fill:rgb(242,242,242);fill-rule:nonzero;"/>
        <path d="M477.68,1090.01L478.107,1101.65L470.858,1122.72L456.564,1119.61L458.079,1087.18L460.886,1082.32L477.68,1090.01Z" style="fill:rgb(81,73,67);fill-rule:nonzero;"/>
        <path d="M1472.56,1028.49C1472.56,1043.03 1460.77,1054.81 1446.23,1054.81L1356.94,1054.81L1356.94,713.371L1446.23,713.371C1460.77,713.371 1472.56,725.157 1472.56,739.695L1472.56,1028.49Z" style="fill:rgb(215,221,221);fill-rule:nonzero;"/>
        <path d="M1358.21,1054.81L299.829,1054.81L299.829,592.204C299.829,573.219 315.219,557.829 334.204,557.829L1323.83,557.829C1342.82,557.829 1358.21,573.219 1358.21,592.204L1358.21,1054.81Z" style="fill:rgb(197,204,204);fill-rule:nonzero;"/>
        <path d="M299.829,959.15C299.782,959.038 299.737,958.926 299.693,958.813L299.693,909.611C299.738,909.668 299.784,909.727 299.829,909.784L299.829,959.15Z" style="fill:rgb(232,232,232);fill-rule:nonzero;"/>
        <path d="M315.868,969.692C308.647,969.692 302.412,965.347 299.829,959.15L299.829,909.784C306.334,918.025 316.412,923.315 327.726,923.315L1357.57,923.315L1358.21,935.721L316.647,969.676C316.386,969.687 316.126,969.692 315.868,969.692Z" style="fill:rgb(179,186,186);fill-rule:nonzero;"/>
        <path d="M1362.08,923.315L327.726,923.315C308.109,923.315 292.206,907.412 292.206,887.795L292.206,873.532C292.206,853.916 308.109,838.013 327.726,838.013L1362.08,838.013C1381.69,838.013 1397.6,853.916 1397.6,873.532L1397.6,887.795C1397.6,907.412 1381.69,923.315 1362.08,923.315Z" style="fill:rgb(215,221,221);fill-rule:nonzero;"/>
        <path d="M299.693,1054.31L215.297,1054.31C198.052,1054.31 184.072,1040.33 184.072,1023.09L184.072,744.097C184.072,726.852 198.052,712.871 215.297,712.871L299.693,712.871L299.693,1054.31Z" style="fill:rgb(215,221,221);fill-rule:nonzero;"/>
        <path d="M299.829,837.995C299.783,837.994 299.736,837.994 299.693,837.994L299.693,837.252L299.829,837.164L299.829,837.995Z" style="fill:rgb(245,245,245);fill-rule:nonzero;"/>
        <path d="M314.055,838.013C306.894,838.013 302.068,838.007 299.829,837.995L299.829,837.164L362.146,797.001C362.146,797.001 513.2,794.894 695.317,792.62C696.244,802.694 698.369,810.471 702.741,810.991C702.911,811.011 703.08,811.021 703.248,811.021C704.578,811.021 705.859,810.428 707.039,809.854C715.268,805.848 722.111,800.871 729.154,796.107C729.299,796.311 729.446,796.512 729.594,796.708C738.163,808.053 753.41,811.596 767.456,813.601C783.19,815.846 799.06,817.141 814.948,817.471C817.018,817.514 819.092,817.54 821.165,817.54C830.365,817.54 839.572,817.018 848.559,815.11C866.06,811.395 882.009,802.6 898.787,796.377C905.77,793.787 912.915,791.639 920.167,789.947C1065.22,788.327 1200.26,787.07 1270.01,787.07C1300.64,787.07 1318.67,787.312 1319.44,787.873C1325.11,792.022 1358.21,836.014 1358.21,836.014C1358.21,836.014 445.376,838.013 314.055,838.013Z" style="fill:rgb(189,196,196);fill-rule:nonzero;"/>
        <path d="M299.693,837.994C299.133,837.991 298.755,837.987 298.559,837.982L299.693,837.252L299.693,837.994Z" style="fill:rgb(207,212,212);fill-rule:nonzero;"/>
        <path d="M837.463,1100.02L830.707,1110.43L837.95,1149.64L851.584,1158.5L865.431,1150.23L864.045,1119.2L851.311,1091.75L837.463,1100.02Z" style="fill:rgb(54,54,54);fill-rule:nonzero;"/>
        <path d="M896.446,1107.4L894.341,1119.63L916.46,1152.81L932.48,1155.57L941.946,1142.52L928.436,1114.54L905.912,1094.35L896.446,1107.4Z" style="fill:rgb(54,54,54);fill-rule:nonzero;"/>
        <path d="M729.594,796.708C738.163,808.053 753.41,811.596 767.456,813.601C783.19,815.846 799.06,817.141 814.948,817.471C826.202,817.705 837.547,817.448 848.559,815.11C866.06,811.395 882.009,802.6 898.787,796.377C913.628,790.872 929.204,787.366 944.966,785.983C949.413,785.594 954.086,785.306 957.867,782.926C966.159,777.707 966.069,765.768 964.989,756.008C963.452,742.127 961.314,727.04 951.245,717.399C944.114,710.572 934.162,707.702 924.522,705.638C878.862,695.861 830.584,699.536 786.661,715.259C769.018,721.575 741.205,730.766 728.837,745.869C718.677,758.275 720.39,784.524 729.594,796.708Z" style="fill:rgb(46,70,97);fill-rule:nonzero;"/>
        <path d="M729.638,792.459C727.903,797.03 727.587,802.697 727.462,811.169L780.619,850.626L828.551,1115.58L865.371,1115.34L885.987,861.714C882.327,840.507 881.711,815.588 874.547,795.444C866.048,771.546 826.92,761.142 803.556,760.659C783.287,760.24 763.115,766 745.907,776.656C736.422,782.53 731.863,786.593 729.638,792.459Z" style="fill:rgb(46,70,97);fill-rule:nonzero;"/>
        <path d="M954.711,761.214C957.032,765.604 958.993,770.252 961.777,774.612C968.035,784.416 974.215,794.058 980.072,804.331C988.278,818.728 996.34,833.21 1004.27,847.764L929.599,1120.01L893.987,1117.72L902.028,852.354C902.217,845.539 887.019,836.414 882.526,832.877C870.98,823.787 865.511,819.141 859.066,805.675C854.042,795.174 853.205,782.682 857.059,771.696C860.912,760.712 869.474,751.409 880.216,746.923C888.549,743.442 897.76,742.854 906.774,742.312C919.815,741.525 934.03,741.06 944.614,748.72C949.349,752.146 952.235,756.532 954.711,761.214Z" style="fill:rgb(46,70,97);fill-rule:nonzero;"/>
        <path d="M694.904,765.133C694.256,784.34 694.671,810.031 702.741,810.991C704.253,811.171 705.71,810.501 707.039,809.854C721.072,803.023 731.075,793.365 744.911,786.765C759.408,779.848 775.885,776.229 791.987,773.728C816.005,769.886 840.42,767.576 864.593,767.36C885.368,767.176 910.509,766.586 930.148,771.809C945.068,777.195 959.742,782.723 974.297,788.632C969.906,717.083 959.757,644.107 943.715,570.322C937.452,541.518 937.591,513.028 916.61,490.995C897.832,471.274 904.14,445.979 849.009,446.385C751.253,447.105 780.471,440.006 738.466,518.241C729.041,535.798 717.158,583.689 713.63,602.619C709.384,625.402 705.461,648.077 702.372,670.693C698.952,695.741 696.541,720.716 695.843,745.543C695.766,748.288 695.214,755.963 694.904,765.133Z" style="fill:rgb(46,70,97);fill-rule:nonzero;"/>
        <path d="M800.853,452.992L854.441,453.3C854.441,453.3 892.129,607.05 893.869,633.531C895.578,659.528 902.032,761.109 902.032,761.109C902.032,761.109 849.568,751.637 794.261,762.645C739.358,773.571 743.118,776.816 743.118,776.816C743.118,776.816 772.724,666.032 773.701,634.202C774.699,601.645 799,521 799,521L800.853,452.992Z" style="fill:white;fill-rule:nonzero;"/>
        <path d="M835.252,453.475C834.771,453.893 834.217,454.222 833.576,454.433C832.304,454.852 830.922,454.698 829.591,454.541C824.171,453.899 818.751,453.259 813.331,452.617C815.118,436.02 805.416,432.266 795.962,421.591C786.379,410.769 789.328,396.178 789.867,382.934C790.021,379.246 790.2,375.446 791.76,372.1C794.496,366.229 800.868,362.986 807.055,361.063C822.841,356.157 840.896,357.366 854.796,366.314C858.495,368.695 861.949,371.688 863.953,375.604C867.043,381.644 866.258,388.851 865.396,395.579C864.072,405.921 861.012,416.078 855.164,424.795C849.715,432.915 839.327,436.805 838.134,446.551C837.825,449.068 837.063,451.901 835.252,453.475Z" style="fill:rgb(231,202,173);fill-rule:nonzero;"/>
        <path d="M903.119,345.105C902.952,340.042 900.926,335.519 896.173,332.463C892.075,329.829 887.35,327.645 884.86,323.457C882.928,320.207 882.645,316.185 880.729,312.924C877.263,307.021 869.736,305.284 863.189,303.283C846.813,298.277 837.995,292.498 820.649,298.906C808.316,303.463 792.382,304.073 780.935,310.719C776.155,313.494 772.088,317.953 768.75,322.919C757.187,340.125 754.41,364.319 761.941,382.266C763.628,386.283 765.77,389.978 768.06,393.515C772.639,400.587 777.543,409.289 785.65,412.752C786.16,409.419 788.769,407.58 789.584,404.305C790.172,401.948 789.975,399.478 789.847,397.051C789.349,387.615 786.308,372.695 796.209,368.016C808.729,362.099 832.216,367.437 844.275,372.445C854.945,376.877 872.953,382.644 884.329,377.896C894.89,373.488 903.477,355.921 903.119,345.105Z" style="fill:rgb(58,48,41);fill-rule:nonzero;"/>
        <path d="M810.943,453.63L847.991,453.63L833.494,474.574L854.434,687.516L828.661,715.442L810.943,682.279L815.775,474.574L810.943,453.63Z" style="fill:rgb(46,70,97);fill-rule:nonzero;"/>
        <path d="M1223.75,1099.21L1225.41,1111.51L1202.12,1143.88L1186.01,1146.06L1177.02,1132.67L1191.52,1105.2L1214.75,1085.83L1223.75,1099.21Z" style="fill:rgb(39,49,64);fill-rule:nonzero;"/>
        <path d="M1167.08,1103.1L1169.19,1115.32L1147.07,1148.51L1131.05,1151.27L1121.58,1138.21L1135.09,1110.24L1157.62,1090.04L1167.08,1103.1Z" style="fill:rgb(39,49,64);fill-rule:nonzero;"/>
        <path d="M1333.93,792.4C1325.36,803.745 1310.12,807.288 1296.07,809.293C1280.34,811.539 1264.47,812.832 1248.58,813.163C1237.33,813.397 1225.98,813.141 1214.97,810.803C1197.47,807.087 1181.52,798.292 1164.74,792.068C1149.9,786.563 1134.32,783.059 1118.56,781.676C1114.11,781.286 1109.44,780.998 1105.66,778.618C1097.37,773.399 1097.46,761.461 1098.54,751.699C1100.08,737.819 1102.21,722.732 1112.28,713.091C1119.41,706.264 1129.37,703.395 1139,701.33C1184.67,691.553 1232.94,695.228 1276.87,710.951C1294.51,717.268 1322.32,726.459 1334.69,741.561C1344.85,753.967 1343.14,780.216 1333.93,792.4Z" style="fill:rgb(39,49,64);fill-rule:nonzero;"/>
        <path d="M1324.14,784.252C1325.87,788.823 1326.19,794.489 1326.32,802.961L1273.16,842.418L1225.23,1107.38L1188.41,1107.13L1167.79,853.506C1171.45,832.3 1172.07,807.38 1179.23,787.236C1187.73,763.339 1226.86,752.935 1250.22,752.451C1270.49,752.033 1290.66,757.792 1307.87,768.448C1317.36,774.322 1321.91,778.386 1324.14,784.252Z" style="fill:rgb(39,49,64);fill-rule:nonzero;"/>
        <path d="M1108.82,756.906C1106.5,761.295 1104.53,765.944 1101.75,770.305C1095.49,780.108 1089.31,789.749 1083.46,800.023C1075.25,814.419 1067.19,828.902 1059.26,843.456L1133.93,1115.71L1169.54,1113.41L1161.5,848.046C1161.31,841.231 1176.51,832.106 1181,828.569C1192.55,819.479 1198.02,814.833 1204.46,801.367C1209.49,790.866 1210.32,778.374 1206.47,767.389C1202.62,756.403 1194.05,747.102 1183.31,742.615C1174.98,739.135 1165.77,738.547 1156.75,738.004C1143.71,737.217 1129.5,736.752 1118.91,744.411C1114.18,747.838 1111.29,752.225 1108.82,756.906Z" style="fill:rgb(39,49,64);fill-rule:nonzero;"/>
        <path d="M471.06,466.467C470.64,466.565 470.222,466.667 469.806,466.771C449.909,471.78 427.391,499.791 420.265,519.142C398.291,578.807 394.634,616.232 386.404,668.645C381.974,696.866 369.887,724.444 358.196,750.492C354.919,757.792 356.88,765.175 356.362,772.762C355.822,780.661 357.707,788.766 359.254,796.566C359.648,798.738 372.597,793.273 373.733,792.908C394.075,786.388 414.593,780.363 435.419,775.578C449.2,772.411 463.11,769.789 477.124,767.885C518.469,762.267 545.899,775.597 585.345,788.751C583.965,698.49 588.978,625.465 573.785,536.807C571.968,526.202 572.044,519.011 566.088,507.554C560.37,496.557 556.517,488.896 547.354,481.222C544.216,478.592 541.054,475.946 537.49,473.97C518.71,463.55 491.976,461.54 471.06,466.467Z" style="fill:rgb(100,115,128);fill-rule:nonzero;"/>
        <path d="M671.698,508.423L689.512,486.155L680.326,478.128L664.752,490.676L662.17,484.862L649.247,505.774L657.669,515.408L671.698,508.423Z" style="fill:rgb(232,203,174);fill-rule:nonzero;"/>
        <path d="M547.354,481.222L593.062,551.18L645.399,501.126L661.133,521.098L576.271,637.735L512.412,537.446L547.354,481.222Z" style="fill:rgb(100,115,128);fill-rule:nonzero;"/>
        <path d="M470.3,466.755L380.603,516.156L355.264,447.415L329.884,448.875L324.165,583.053L339.319,603.559L432.121,564.607L470.3,466.755Z" style="fill:rgb(100,115,128);fill-rule:nonzero;"/>
        <path d="M535.626,420.309C539.918,432.868 533.711,446.26 528.256,457.708C526.027,462.386 522.513,468.932 526.319,473.672C530.58,478.979 539.852,476.962 543.607,472.34C546.26,469.076 547.34,464.888 548.24,460.818C552.274,442.583 557.899,417.043 554.771,398.568C552.264,383.755 532.444,358.897 515.206,370.083C512.078,372.114 510.256,375.547 508.732,378.896C507.823,380.896 506.958,382.984 506.932,385.172C506.826,393.896 515,395.368 520.645,399.52C527.607,404.641 532.885,412.288 535.626,420.309Z" style="fill:rgb(81,73,67);fill-rule:nonzero;"/>
        <path d="M509.484,469.343C521.406,466.605 530.727,456.852 535.206,445.744C539.685,434.637 539.919,422.319 538.68,410.446C534.558,370.937 484.119,373.473 467.039,403.755C452.153,430.146 474.821,477.299 509.484,469.343Z" style="fill:rgb(231,202,173);fill-rule:nonzero;"/>
        <path d="M470.835,422.227C468.351,431.418 467.94,442.579 468.4,449.315C468.926,456.996 472.688,477.87 458.322,474.563C446.342,471.806 436.26,444.431 432.448,434.641C423.186,410.85 420.822,385.844 435.075,363.867C440.63,355.302 448.376,347.743 458.096,344.145C472.711,338.732 498.123,336.557 513.005,342.838C529.226,349.685 537.828,370.157 527.624,385.104C516.649,401.179 491.172,397.058 477.44,409.512C474.394,412.275 472.27,416.923 470.835,422.227Z" style="fill:rgb(81,73,67);fill-rule:nonzero;"/>
        <path d="M510.143,465.164C509.785,468.168 509.428,471.172 509.071,474.176C508.908,475.554 509.347,479.41 508.313,480.44C507.774,480.978 506.906,480.988 506.136,480.962C503.935,480.888 484.208,480.132 484.309,478.817C484.578,475.291 484.922,471.829 485.673,468.414C486.279,465.655 486.164,460.583 487.536,458.405C491.052,460.458 494.603,461.599 498.604,462.387C502.465,463.146 506.34,463.839 510.226,464.465C510.197,464.698 510.17,464.931 510.143,465.164Z" style="fill:rgb(231,202,173);fill-rule:nonzero;"/>
        <path d="M1063.96,436.331L1052.83,424.579L1053.45,410.32L1050.49,408.655L1048.29,412.21L1045.41,400.229L1037.41,394.229L1024.73,398.251L1016.94,409.584L1022.27,421.757L1035,431.12L1049.54,447.867L1063.96,436.331Z" style="fill:rgb(231,202,173);fill-rule:nonzero;"/>
        <path d="M1057.27,424.993L1119.16,493.645C1135.01,488.594 1149.67,485.423 1165.89,482.73C1181.64,480.117 1199.19,467.283 1215.4,470.851C1251.99,478.905 1180.01,528.563 1171.07,534.896C1153.22,547.531 1135.37,560.166 1117.53,572.801L1102.75,562.477L1029.16,439.369L1057.27,424.993Z" style="fill:rgb(39,49,64);fill-rule:nonzero;"/>
        <path d="M1341.5,756.02C1341.91,774.872 1341.32,800.279 1334.07,801.209C1332.72,801.384 1331.42,800.713 1330.23,800.064C1317.71,793.227 1308.85,783.604 1296.5,776.997C1283.56,770.073 1268.76,766.394 1254.24,763.818C1232.54,759.852 1210.35,757.392 1188.23,757.006C1170.85,756.702 1153.38,758.184 1136.07,759.624C1121.66,760.823 1108.26,765.092 1093.59,764.075C1078.55,763.032 1063.73,758.426 1050.88,750.524C1050.41,750.235 1049.91,749.906 1049.71,749.39C1049.5,748.824 1049.71,748.196 1049.92,747.628C1052.99,739.21 1055.2,730.874 1060.77,723.902C1067,716.118 1071.43,706.227 1075.93,697.365C1085.32,678.896 1094.16,659.541 1100.71,639.866C1106.14,625.228 1111.36,610.434 1115.91,595.499C1117.99,588.703 1119.84,581.793 1121.88,574.908C1123.9,568.091 1127.66,559.223 1127.66,552.086C1127.66,523.411 1153.39,501.84 1170.13,480.889C1175.16,474.591 1180.53,468.035 1188.01,465.032C1193.14,462.976 1198.79,462.79 1204.32,462.631C1221.07,462.15 1237.82,461.669 1254.57,461.188C1260.67,461.012 1267.03,460.883 1272.59,463.399C1280.94,467.17 1285.65,475.931 1289.77,484.104C1308.26,520.756 1320.04,560.271 1326.65,601.022C1330.09,622.3 1333.28,643.62 1335.76,665.02C1338.53,688.9 1340.43,712.889 1340.83,736.915C1340.88,739.585 1341.3,747.063 1341.5,756.02Z" style="fill:rgb(39,49,64);fill-rule:nonzero;"/>
        <path d="M1219.7,549.209C1215.21,559.018 1212.6,565.675 1220.35,573.784C1227.75,581.544 1230.8,581.957 1233.94,593.566C1239.19,612.989 1244.07,633.163 1246.4,653.178C1247.94,666.374 1245.46,679.013 1247.15,692.405C1247.77,697.271 1253.14,754.35 1256.47,754.379C1230.51,754.153 1204.54,753.927 1178.58,753.701C1165.59,753.588 1152.61,753.473 1139.63,753.362C1131.64,753.294 1124.43,755.376 1123.8,746.312C1123.27,738.55 1132.58,724.41 1135.04,716.618C1141.6,695.9 1146.2,674.009 1158.65,655.783C1165.16,646.273 1173.61,638.088 1179.02,627.917C1189.62,607.995 1186.97,584.036 1187.04,561.47C1187.09,540.714 1189.72,519.97 1194.79,499.844C1198.38,485.59 1200.63,466.842 1217.79,463.862C1230.64,461.629 1245.16,459.739 1258.08,461.639C1262.48,477.653 1248.26,496.561 1240.3,509.043C1234.88,517.539 1230.24,526.511 1226.2,535.733C1224.83,538.846 1222.13,543.912 1219.7,549.209Z" style="fill:rgb(193,214,224);fill-rule:nonzero;"/>
        <path d="M1221.43,472.026C1230.75,471.621 1240.07,471.216 1249.4,470.812C1249.9,463.387 1249.81,455.922 1249.12,448.511C1257,446.223 1266.16,442.644 1267.95,434.638C1268.52,432.116 1268.22,429.491 1267.92,426.925C1266.69,416.313 1265.46,405.702 1264.22,395.091C1263.8,391.421 1263.34,387.642 1261.53,384.417C1258.37,378.76 1251.77,375.995 1245.45,374.534C1229.33,370.806 1211.4,373.348 1198.19,383.308C1194.67,385.958 1191.45,389.2 1189.74,393.258C1187.1,399.514 1188.42,406.648 1189.77,413.301C1191.03,419.44 1192.28,425.581 1193.53,431.721C1194.97,438.782 1197.17,446.842 1203.74,449.824C1207.22,451.407 1211.45,451.235 1214.56,453.465C1220.04,457.396 1218.81,465.808 1221.43,472.026Z" style="fill:rgb(231,202,173);fill-rule:nonzero;"/>
        <path d="M1169.78,337.17C1171.85,336.801 1173.96,336.364 1176.1,335.434C1182.85,332.494 1187.58,326.599 1194.75,323.84C1209.26,318.26 1227.45,319.069 1241.7,325.063C1255.34,330.798 1273.95,333.005 1286.15,340.711C1291.25,343.929 1295.19,348.734 1298.18,353.967C1308.54,372.097 1307.26,396.231 1295.05,413.167C1292.31,416.967 1289.09,420.4 1285.73,423.663C1278.77,430.417 1270.44,438.772 1261.26,440.909C1261.49,432.82 1270.26,407.762 1264.43,400.798C1256.69,391.564 1241.5,391.801 1230.62,392.819C1217.65,394.034 1206.98,389.87 1194.04,390.518C1187.46,390.848 1180.01,392.172 1174.96,387.93C1169.12,383.026 1156.77,367.452 1153.84,360.617C1151.28,354.633 1152.99,347.263 1157.45,342.517C1161.29,338.419 1165.44,337.942 1169.78,337.17Z" style="fill:rgb(58,48,41);fill-rule:nonzero;"/>
        <path d="M439.283,808.971L456.636,969.263L459.144,1088.67L477.901,1094.19L493.35,985.515L526.709,786.866L439.283,808.971Z" style="fill:rgb(232,203,174);fill-rule:nonzero;"/>
        <path d="M547.276,1092.49L552.396,1103.71L553.709,1127.27L538.285,1130.01L526.709,1097.65L527.531,1091.75L547.276,1092.49Z" style="fill:rgb(81,73,67);fill-rule:nonzero;"/>
        <path d="M570.417,771.666L579.699,902.087L547.081,1095.18L528.164,1095.18L534.46,916.431L496.469,762.195L570.417,771.666Z" style="fill:rgb(232,203,174);fill-rule:nonzero;"/>
        <path d="M598.11,795.47C595.014,787.286 590.715,779.127 584.948,770.795C564.582,741.368 531.832,733.909 500.038,732.24C485.335,731.469 471.215,726.365 456.582,727.657C437.939,729.302 419.631,736.93 401.94,743.073C385.825,748.672 360.697,757.808 363.237,781.472C367.265,818.993 400.651,832.353 410.082,864.833C411.994,871.42 412.274,878.424 412.54,885.331C413.271,904.383 413.474,923.603 414.877,942.584C424.153,944.286 433.445,939.402 442.883,938.938C458.36,938.179 474.998,942.174 490.467,943.52C523.038,946.352 555.68,948.213 588.343,949.103C592.525,924.146 596.709,899.188 600.892,874.231C605.906,844.311 607.311,819.782 598.11,795.47Z" style="fill:rgb(137,145,149);fill-rule:nonzero;"/>
        <path d="M975.605,435.025L978.907,422.163L972.787,412.18L974.244,409.809L977.236,411.483C972.561,408.902 975.71,393.277 976.746,389.965C977.116,388.782 977.575,387.567 978.49,386.731C979.627,385.693 981.252,385.427 982.782,385.257C986.41,384.855 990.071,384.751 993.716,384.945C994.543,384.989 995.421,385.066 996.083,385.563C997.068,386.303 997.242,387.688 997.324,388.917C998.075,400.113 998.971,409.568 994.301,419.755L990.545,437.557L975.605,435.025Z" style="fill:rgb(231,202,173);fill-rule:nonzero;"/>
        <path d="M970.555,421.316L955,500L868.688,447.878L899.282,544.824L980,576L991.903,571.148L1000.68,431.729L970.555,421.316Z" style="fill:rgb(46,70,97);fill-rule:nonzero;"/>
        <path d="M1220.04,478.527L1238.57,482.427L1233.69,496.076L1225.89,504.851C1225.89,504.851 1206.4,558.474 1203.47,584.798C1200.55,611.122 1203.47,645.235 1203.47,645.235L1202.5,668.645C1202.5,668.645 1190.8,653.045 1187.87,650.12C1184.95,647.195 1185.92,575.048 1191.77,547.749C1197.62,520.45 1216.72,496.769 1216.72,496.769C1216.72,496.769 1219.07,485.352 1220.04,478.527Z" style="fill:rgb(46,70,97);fill-rule:nonzero;"/>
        <path d="M1173.48,663.301L1157.69,671.598L1142.75,666.689L1140.1,669.328L1143.21,672.72L1129.65,672.197L1120.89,678.895L1121.37,693.553L1131.07,705.192L1145.58,703.173L1159.31,692.463L1181.41,682.042L1173.48,663.301Z" style="fill:rgb(231,202,173);fill-rule:nonzero;"/>
        <path d="M1159.45,667.016L1250.75,621.839C1250.13,603.521 1251.14,587.019 1253.12,569.01C1255.05,551.523 1246.67,529.075 1255.29,512.945C1274.76,476.535 1305.96,567.713 1310,579.091C1318.08,601.793 1326.16,624.495 1334.24,647.198L1318.87,659.792L1166.32,701.117L1159.45,667.016Z" style="fill:rgb(39,49,64);fill-rule:nonzero;"/>
        <path d="M1019.67,484.425L1010.39,482.01C1006.91,481.105 1004.83,477.555 1005.73,474.079L1052.9,292.791C1053.8,289.315 1057.35,287.231 1060.83,288.135L1070.11,290.55C1073.58,291.454 1075.67,295.005 1074.77,298.48L1027.6,479.769C1026.7,483.244 1023.15,485.329 1019.67,484.425Z" style="fill:rgb(88,100,108);fill-rule:nonzero;"/>
        <path d="M1057.69,364.128L1065.47,334.202L1057.69,364.128ZM1043.46,329.071L1043.46,329.069L1043.46,329.072" style="fill:rgb(191,191,191);fill-rule:nonzero;"/>
        <path d="M1057.69,364.128L1043.46,329.071L1043.46,329.069L1043.64,328.527C1047.13,329.826 1050.71,330.959 1054.39,331.916C1058.08,332.876 1061.78,333.636 1065.47,334.202L1057.69,364.128Z" style="fill:rgb(66,75,81);fill-rule:nonzero;"/>
        <path d="M1182.57,251.907C1168.13,307.446 1111.39,340.757 1055.85,326.308C1000.31,311.859 967.002,255.123 981.45,199.584C995.899,144.046 1052.63,110.735 1108.17,125.184C1163.71,139.633 1197.02,196.368 1182.57,251.907Z" style="fill:rgb(241,248,255);fill-rule:nonzero;"/>
        <path d="M1106.71,130.792C1054.36,117.172 1000.68,148.686 987.06,201.044C973.439,253.401 1004.95,307.078 1057.31,320.699C1109.67,334.32 1163.34,302.805 1176.97,250.448C1190.59,198.091 1159.07,144.413 1106.71,130.792ZM1054.39,331.916C995.85,316.686 960.612,256.668 975.842,198.125C991.072,139.583 1051.09,104.345 1109.63,119.575C1168.18,134.806 1203.41,194.823 1188.18,253.366C1172.95,311.909 1112.93,347.146 1054.39,331.916Z" style="fill:rgb(204,225,232);fill-rule:nonzero;"/>
        <path d="M1123.69,277.052L1120.34,276.169L1096.96,237.09L1032.14,270.559L1029.66,265.065L1137.81,207.408L1142.46,214.242L1101.9,234.578L1123.69,277.052Z" style="fill:rgb(181,186,191);fill-rule:nonzero;"/>
        <path d="M1144.38,210.942L1133.06,188.722L1085.93,212.73L1059.15,167.119L1037.64,179.745L1063.67,224.071L1017.87,247.402L1029.19,269.624L1076.32,245.615L1103.09,291.227L1124.6,278.601L1098.58,234.274L1144.38,210.942Z" style="fill:rgb(128,27,46);fill-rule:nonzero;"/>
        <path d="M761.016,810.362L753.141,804.889C750.191,802.839 749.462,798.786 751.512,795.837L858.417,642.016C860.467,639.067 864.519,638.338 867.469,640.388L875.345,645.861C878.294,647.911 879.023,651.964 876.973,654.913L770.068,808.734C768.018,811.684 763.966,812.412 761.016,810.362Z" style="fill:rgb(88,100,108);fill-rule:nonzero;"/>
        <path d="M838.262,710.614L853.95,688.041L853.951,688.04L838.262,710.614ZM854.42,687.365L855.909,685.222L854.42,687.365Z" style="fill:rgb(191,191,191);fill-rule:nonzero;"/>
        <path d="M853.95,688.041L854.42,687.365L853.951,688.04L853.95,688.041ZM837.022,672.8L837.024,672.798L837.022,672.8Z" style="fill:rgb(34,52,73);fill-rule:nonzero;"/>
        <path d="M838.262,710.614L837.022,672.8L837.024,672.798L837.384,672.353C840.207,674.776 843.181,677.08 846.301,679.248C849.433,681.425 852.64,683.416 855.909,685.222L854.42,687.365L853.95,688.041L838.262,710.614Z" style="fill:rgb(66,75,81);fill-rule:nonzero;"/>
        <path d="M994.235,648.465C961.484,695.589 896.733,707.241 849.608,674.489C802.484,641.738 790.832,576.986 823.584,529.862C856.335,482.738 921.087,471.087 968.211,503.838C1015.34,536.589 1026.99,601.341 994.235,648.465Z" style="fill:rgb(241,248,255);fill-rule:nonzero;"/>
        <path d="M964.903,508.597C920.479,477.722 859.218,488.745 828.343,533.17C797.468,577.595 808.49,638.855 852.915,669.731C897.34,700.605 958.602,689.582 989.477,645.157C1020.35,600.733 1009.33,539.471 964.903,508.597ZM846.301,679.248C796.628,644.726 784.302,576.227 818.825,526.555C853.348,476.882 921.845,464.557 971.518,499.079C1021.19,533.602 1033.52,602.099 998.994,651.772C964.472,701.445 895.974,713.771 846.301,679.248Z" style="fill:rgb(204,225,232);fill-rule:nonzero;"/>
        <path d="M930.29,651.711L927.454,649.727L919.013,604.973L846.624,613.982L846.189,607.967L967.609,591.238L969.608,599.258L924.518,604.323L930.29,651.711Z" style="fill:rgb(181,186,191);fill-rule:nonzero;"/>
        <path d="M972.546,596.824L969.603,572.061L917.08,578.304L907.713,526.247L883.17,530.664L892.272,581.252L841.23,587.319L844.174,612.083L896.697,605.84L906.063,657.896L930.607,653.479L921.505,602.891L972.546,596.824Z" style="fill:rgb(128,27,46);fill-rule:nonzero;"/>
        <path d="M544.242,534.885C543.268,500.108 514.992,480.981 514.992,480.981L475.995,478.373L448.696,525.321L501.1,588.74C492.165,661.081 470.3,728.106 470.3,728.106L493.8,731.673C497.457,714.759 502.49,619.622 503.967,590.468L544.242,534.885Z" style="fill:rgb(137,145,149);fill-rule:nonzero;"/>
        <path d="M778.349,729.78L784.619,741.485L795.88,744.698L796.411,747.43L793.074,748.221C798.263,746.958 806.515,760.596 807.992,763.736C808.521,764.857 809.004,766.063 808.896,767.298C808.76,768.831 807.744,770.127 806.732,771.287C804.332,774.037 801.706,776.59 798.891,778.913C798.252,779.44 797.554,779.977 796.729,780.059C795.504,780.181 794.438,779.278 793.547,778.43C785.42,770.691 778.364,764.334 774.911,753.674L765.635,738.022L778.349,729.78Z" style="fill:rgb(231,202,173);fill-rule:nonzero;"/>
        <path d="M792.037,732.992L753,630L772,571L762.788,467.803L686,599L684,626L764.729,756.699L792.037,732.992Z" style="fill:rgb(46,70,97);fill-rule:nonzero;"/>
        <path d="M329.571,441.689L329.057,413.887L341.222,413.038L345.893,431.96L351.481,428.954L348.952,452.826L336.412,455.374L329.571,441.689Z" style="fill:rgb(232,203,174);fill-rule:nonzero;"/>
        <path d="M311.681,501.015L302.87,497.224C299.571,495.804 298.048,491.978 299.468,488.68L373.516,316.614C374.937,313.316 378.762,311.792 382.061,313.211L390.871,317.003C394.17,318.423 395.693,322.248 394.274,325.547L320.225,497.612C318.805,500.911 314.98,502.434 311.681,501.015Z" style="fill:rgb(88,100,108);fill-rule:nonzero;"/>
        <path d="M367.46,387.855L358.697,351.049L358.963,350.539C362.212,352.35 365.587,354.014 369.076,355.516C372.58,357.023 376.12,358.334 379.683,359.452L368.431,385.598L367.46,387.854" style="fill:rgb(66,75,81);fill-rule:nonzero;"/>
        <path d="M507.889,295.822C485.203,348.535 424.08,372.878 371.367,350.192C318.654,327.507 294.311,266.384 316.997,213.671C339.682,160.957 400.805,136.615 453.518,159.3C506.231,181.985 530.574,243.108 507.889,295.822Z" style="fill:rgb(241,248,255);fill-rule:nonzero;"/>
        <path d="M451.228,164.623C401.533,143.237 343.706,166.268 322.32,215.962C300.934,265.655 323.964,323.483 373.658,344.869C423.352,366.255 481.18,343.225 502.565,293.531C523.951,243.837 500.921,186.01 451.228,164.623ZM369.076,355.516C313.512,331.603 287.761,266.944 311.673,211.38C335.586,155.815 400.244,130.064 455.809,153.976C511.373,177.89 537.124,242.548 513.211,298.112C489.3,353.677 424.641,379.428 369.076,355.516Z" style="fill:rgb(204,225,232);fill-rule:nonzero;"/>
        <path d="M445.878,311.768L442.703,310.389L425.498,268.22L356.364,291.497L354.739,285.691L470.375,245.062L473.935,252.521L430.762,266.485L445.878,311.768Z" style="fill:rgb(181,186,191);fill-rule:nonzero;"/>
        <path d="M476.328,249.55L468.5,225.872L418.281,242.474L398.711,193.335L375.543,202.562L394.562,250.314L345.758,266.448L353.585,290.126L403.805,273.524L423.374,322.663L446.543,313.437L427.524,265.683L476.328,249.55Z" style="fill:rgb(128,27,46);fill-rule:nonzero;"/>
        <path d="M351.787,427.805C350.024,426.626 347.841,426.089 345.732,426.315C345.481,426.342 345.22,426.384 345.018,426.534C344.771,426.719 344.66,427.029 344.561,427.321C343.779,429.626 342.997,431.931 342.215,434.235C345.128,434.577 348.008,435.203 350.8,436.102C351.431,433.564 351.736,430.947 351.705,428.333L351.787,427.805Z" style="fill:rgb(231,202,173);fill-rule:nonzero;"/>
    </g>
</svg>
