<?xml version="1.0" standalone="no"?>
<!DOCTYPE svg PUBLIC "-//W3C//DTD SVG 20010904//EN"
 "http://www.w3.org/TR/2001/REC-SVG-20010904/DTD/svg10.dtd">
<svg version="1.0" xmlns="http://www.w3.org/2000/svg"
 width="700.000000pt" height="700.000000pt" viewBox="0 0 700.000000 700.000000"
 preserveAspectRatio="xMidYMid meet">
<metadata>
Created by potrace 1.11, written by Peter Selinger 2001-2013
</metadata>
<g transform="translate(0.000000,700.000000) scale(0.100000,-0.100000)"
fill="#000000" stroke="none">
<path d="M3278 6995 c-2 -1 -39 -5 -83 -9 -114 -8 -269 -31 -420 -61 -249 -50
-552 -154 -810 -280 -638 -312 -1172 -817 -1518 -1436 -185 -331 -319 -698
-381 -1039 -9 -47 -18 -98 -21 -115 -3 -16 -8 -50 -11 -75 -3 -25 -7 -56 -9
-70 -13 -73 -20 -218 -19 -415 0 -318 18 -489 79 -770 3 -11 7 -29 9 -40 77
-344 256 -763 465 -1085 35 -55 190 -270 201 -280 3 -3 24 -27 45 -55 104
-129 271 -298 431 -435 81 -69 251 -200 261 -200 4 -1 24 -14 43 -30 19 -17
40 -30 46 -30 7 0 14 -4 16 -8 10 -25 510 -292 545 -292 5 0 28 -9 50 -20 96
-46 469 -158 618 -185 297 -53 375 -60 680 -60 221 0 336 5 440 20 66 9 131
18 140 21 6 1 30 5 55 9 24 4 47 8 50 10 3 2 23 6 45 9 63 10 290 72 400 110
133 45 239 88 364 147 57 27 105 49 106 49 2 0 52 28 112 61 428 243 796 563
1084 945 46 61 91 122 99 134 8 12 27 40 43 61 15 21 27 41 27 45 0 3 15 29
34 57 75 115 192 346 257 508 40 101 108 308 134 411 14 57 30 119 35 138 11
40 36 181 46 255 3 28 8 59 10 70 26 131 25 843 -1 885 -2 3 -6 28 -9 55 -3
28 -13 88 -22 135 -9 47 -18 96 -21 110 -19 105 -117 433 -157 525 -8 16 -24
55 -36 85 -69 168 -195 403 -303 565 -145 219 -262 361 -457 555 -133 133
-239 225 -384 334 -99 74 -319 216 -336 216 -5 0 -10 5 -10 10 0 6 -5 10 -10
10 -6 0 -41 17 -78 38 -235 133 -629 276 -927 337 -108 22 -119 24 -225 40 -8
2 -45 6 -81 9 -36 4 -79 10 -95 12 -32 5 -540 14 -546 9z"/>
</g>
</svg>
